<?xml version="1.0" encoding="UTF-8"?>
<!DOCTYPE svg PUBLIC "-//W3C//DTD SVG 1.1//EN" "http://www.w3.org/Graphics/SVG/1.1/DTD/svg11.dtd">
<!-- Creator: CorelDRAW X7 -->
<svg xmlns="http://www.w3.org/2000/svg" xml:space="preserve" width="52.4422mm" height="45.7826mm" version="1.1" style="shape-rendering:geometricPrecision; text-rendering:geometricPrecision; image-rendering:optimizeQuality; fill-rule:evenodd; clip-rule:evenodd"
viewBox="0 0 4082 3564"
 xmlns:xlink="http://www.w3.org/1999/xlink">
 <defs>
  <style type="text/css">
   <![CDATA[
    .fil0 {fill:black}
    .fil1 {fill:black;fill-rule:nonzero}
   ]]>
  </style>
 </defs>
 <g id="Слой_x0020_1">
  <metadata id="CorelCorpID_0Corel-Layer"/>
  <g id="_2560442663872">
   <path class="fil0" d="M3670 0l0 76c147,9 287,48 412,110l0 208c-139,-88 -305,-139 -483,-139 -34,0 -67,2 -100,5l0 -182 1 0 0 -78 170 0zm-558 0c-378,158 -662,496 -747,906l-179 0c67,-371 276,-693 570,-906l356 0zm970 1930l0 208c-77,39 -160,68 -247,87l0 -186c89,-24 172,-61 247,-109zm0 396l0 189c-151,54 -313,83 -483,83 -33,0 -66,-1 -99,-3l0 -177 0 0 0 -171c-473,-43 -859,-388 -963,-841l188 0c106,383 457,664 874,664 24,0 49,-1 73,-3l0 182 -2 0 0 171c145,-8 284,-41 412,-94zm-1740 -1256l172 0c39,-470 377,-854 822,-965l0 189c-373,112 -644,459 -644,868 0,27 1,54 3,81l-11 0 0 0 -342 0c36,570 450,1036 994,1152l0 179c-667,-123 -1173,-708 -1173,-1412 0,-31 1,-62 3,-93l176 0 0 1z"/>
   <path class="fil1" d="M4082 752l-1163 0 0 821 1163 0 0 -821zm-842 164l721 0 0 164 -721 0 0 -164zm0 328l721 0 0 165 -721 0 0 -165z"/>
   <path class="fil0" d="M3041 2965l-508 0c-16,0 -33,7 -49,20 -19,15 -29,35 -29,60l0 240c0,18 6,35 19,51 14,20 34,29 59,29l78 0 0 -320 352 0 0 320 78 0c17,0 34,-6 50,-19 18,-15 28,-35 28,-61l0 -240c0,-18 -6,-35 -19,-51 -15,-19 -34,-29 -59,-29zm-2379 320l0 -240c0,-17 -6,-34 -18,-50 -14,-20 -34,-30 -58,-30l-586 0 0 400 586 0c16,0 32,-6 48,-19 19,-15 28,-36 28,-61zm-506 -240l352 0 0 80 -352 0 0 -80zm0 160l352 0 0 80 -352 0 0 -80zm1245 -80l0 -80c0,-17 -6,-34 -19,-50 -15,-20 -35,-30 -59,-30l-507 0c-22,0 -41,8 -56,23 -15,16 -23,35 -23,57l0 320 157 0 0 -160 273 0 78 160 156 0 -78 -160c21,0 40,-7 55,-22 15,-14 23,-34 23,-58zm-507 -80l351 0 0 80 -351 0 0 -80zm1171 -80l-508 0c-16,0 -33,7 -49,20 -19,15 -29,35 -29,60l0 241c0,18 6,35 18,50 15,20 35,29 60,29l78 0 0 -160 352 0 0 160 78 0c16,0 33,-6 49,-19 19,-15 29,-36 29,-61l0 -240c0,-17 -6,-34 -19,-50 -15,-20 -35,-30 -59,-30zm-430 80l352 0 0 80 -352 0 0 -80zm742 -80l-156 0 0 400 156 0 0 -400z"/>
   <path class="fil0" d="M3095 3564l25 -25 0 -76 -25 -26 -101 0 0 127 101 0zm-76 -101l63 0 13 13 0 50 -13 13 -63 0 0 -76z"/>
   <polygon class="fil0" points="2765,3564 2765,3477 2841,3564 2867,3564 2867,3437 2841,3437 2841,3527 2765,3437 2740,3437 2740,3564 "/>
   <polygon class="fil0" points="2588,3564 2613,3564 2613,3437 2588,3437 "/>
   <polygon class="fil0" points="2360,3564 2360,3463 2385,3463 2385,3564 2410,3564 2410,3463 2436,3463 2436,3564 2461,3564 2461,3437 2334,3437 2334,3564 "/>
   <polygon class="fil0" points="1827,3437 1827,3564 1852,3564 1852,3513 1928,3513 1928,3564 1954,3564 1954,3437 1928,3437 1928,3488 1852,3488 1852,3437 "/>
   <polygon class="fil0" points="1573,3463 1624,3463 1624,3564 1649,3564 1649,3463 1700,3463 1700,3437 1573,3437 "/>
   <polygon class="fil0" points="1421,3564 1446,3564 1446,3437 1421,3437 "/>
   <polygon class="fil0" points="1167,3437 1167,3564 1294,3564 1294,3437 1269,3437 1269,3539 1243,3539 1243,3437 1218,3437 1218,3539 1192,3539 1192,3437 "/>
   <polygon class="fil0" points="659,3437 659,3564 685,3564 685,3513 761,3513 761,3564 786,3564 786,3437 761,3437 761,3488 685,3488 685,3437 "/>
   <polygon class="fil0" points="533,3437 406,3437 406,3513 507,3513 507,3539 406,3539 406,3564 533,3564 533,3488 431,3488 431,3463 533,3463 "/>
   <polygon class="fil0" points="254,3564 279,3564 279,3437 254,3437 "/>
   <polygon class="fil0" points="0,3564 25,3564 25,3513 127,3513 127,3488 25,3488 25,3463 127,3463 127,3437 0,3437 "/>
  </g>
 </g>
</svg>
